<?xml version="1.0" encoding="UTF-8" standalone="no"?>
<!-- Created with Inkscape (http://www.inkscape.org/) -->
<svg id="svg4686" xmlns:rdf="http://www.w3.org/1999/02/22-rdf-syntax-ns#" xmlns="http://www.w3.org/2000/svg" xml:space="preserve" height="141.5482" viewBox="0 0 752.50848 141.54825" width="752.5085" version="1.1" xmlns:cc="http://creativecommons.org/ns#" xmlns:dc="http://purl.org/dc/elements/1.1/"><metadata id="metadata4692"><rdf:RDF><cc:Work rdf:about=""><dc:format>image/svg+xml</dc:format><dc:type rdf:resource="http://purl.org/dc/dcmitype/StillImage"/><dc:title/></cc:Work></rdf:RDF></metadata><g id="g4694" transform="matrix(1.25 0 0 -1.25 -72.5 460.0028)"><path id="path4802" d="m120.4022 329.5884c0-14.136-8.5726-26.9816-25.26812-29.9909l23.55462-27.8382 2.1311 2.9878 42.4187 59.987v25.2681h-68.96114c17.55224-1.7135 26.12484-16.2725 26.12484-30.4138" fill="#f3ab0d"/><g fill="#283271"><path id="path4804" d="m132.3857 267.0526 31.2705 43.6931v-47.9821h-34.403l3.1325 4.289zm-60.38325 45.4066h16.27246c11.98349 0 17.99129 8.5565 17.99129 17.1292 0 8.5779-6.0078 16.7115-17.99129 16.7115h-22.27491v-83.5363h41.562l-35.55955 42.8364v6.8592"/><path id="path4814" d="m306.3067 277.3226h14.14135v65.96801h-14.14135v-65.96801z"/><path id="path4816" d="m351.2955 303.8865c-5.5847 0-10.2914 1.7135-14.136 5.5634-3.8499 3.866-6.0024 8.5726-6.0024 14.136s2.1525 10.2915 6.0024 14.1414c3.8446 3.8499 8.5513 6.0024 14.136 6.0024h74.107v-14.1413h-74.107c-1.7134 0-3.0092-0.8568-4.2889-1.7135-1.2958-0.8567-1.7135-2.5702-1.7135-4.289 0-1.7134 0.8567-2.9878 1.7135-4.289 0.862-1.2744 2.5755-1.7134 4.2889-1.7134h53.9632c5.5633 0 10.2914-2.1311 14.1413-5.9811 3.8499-3.8713 6.0025-8.5779 6.0025-14.1413s-2.1526-10.2915-6.0025-14.136c-3.8499-3.8499-8.578-6.0025-14.1413-6.0025h-74.1016v14.5751h74.1016c1.7188 0 3.0146 0.8567 4.2889 1.7188 1.2744 0.8567 1.7135 2.5488 1.7135 4.2622 0 1.7188-0.8567 3.0146-1.7135 4.289-0.8567 1.2958-2.5701 1.7188-4.2889 1.7188h-53.9632"/><path id="path4818" d="m465.2296 343.2906h61.2613v-14.1413h-61.2613c-5.1243 0-9.4133-1.6921-13.2847-5.5634-3.8499-3.8499-5.5633-8.1335-5.5633-13.2793 0-5.1243 1.7134-9.4133 5.5633-13.2846 3.8714-3.8446 8.1604-5.5634 13.2847-5.5634h61.2613v-14.136h-61.2613c-8.9957 0-16.6955 3.0093-23.137 9.4294-6.4201 6.4254-9.4133 14.1413-9.4133 23.137 0 8.9903 2.9932 16.7115 9.4133 23.1316 6.4415 6.8378 14.1413 10.27 23.137 10.27"/><path id="path4820" d="m296.0366 277.3226-18.848 26.1409c5.1243 0.423 9.4133 2.1365 12.8456 5.9864 3.8499 3.866 6.0024 8.5726 6.0024 14.136s-2.1525 10.2915-6.0024 14.1414-8.578 6.0024-14.1414 6.0024h-74.1069v-65.968h14.1414v25.7018h43.6931l18.848-26.1409h17.5682zm-80.1093 51.8267h59.9655c1.7188 0 3.0146-0.8567 4.289-1.6921 1.2744-0.8567 1.7135-2.5755 1.7135-4.2889 0-1.7135-0.8567-3.0093-1.7135-4.289-0.8567-1.2958-2.5702-1.7135-4.289-1.7135h-59.9655v11.9835"/></g><path id="path4822" d="m597.1656 277.3226-38.5474 65.968h16.2725l30.4138-52.2496 30.4084 52.2496h16.2939l-38.5688-65.968" fill="#f3ab0d"/><path id="path4824" d="m535.0689 303.8865h27.83828v12.86162h-27.83828v-12.86162z" fill="#f3ab0d"/></g></svg>
